<?xml version="1.0" encoding="UTF-8"?>
<svg id="Layer_2" xmlns="http://www.w3.org/2000/svg" version="1.1" viewBox="0 0 16 16" width="15.999999" height="15.999999">
  <!-- Generator: Adobe Illustrator 30.0.0, SVG Export Plug-In . SVG Version: 2.1.1 Build 123)  -->
  <defs>
    <style>
      .st0 {
        fill: none;
      }

      .st1 {
        fill: #555;
      }
    </style>
  </defs>
  <path class="st1" d="M14,2H2c-.552,0-1,.448-1,1v10c0,.552.448,1,1,1h12c.552,0,1-.448,1-1V3c0-.552-.448-1-1-1ZM14,10v3H2v-3h12ZM14,3v6H2V3h5.5v3.085l-1.795-1.79-.705.705,3,3,3-3-.705-.705-1.795,1.79v-3.085h5.5Z"/>
  <rect id="_Transparent_Rectangle_" class="st0" x="0" y="0" width="16" height="16"/>
</svg>