<?xml version="1.0" encoding="UTF-8"?>
<svg id="icon" xmlns="http://www.w3.org/2000/svg" version="1.1" viewBox="0 0 12 12" width="15.999999" height="15.999999">
  <!-- Generator: Adobe Illustrator 30.0.0, SVG Export Plug-In . SVG Version: 2.1.1 Build 123)  -->
  <defs>
    <style>
      .st0 {
        fill: none;
      }

      .st1 {
        fill: #555;
      }
    </style>
  </defs>
  <path class="st1" d="M7.237,7.762l-1.613-1.613v-2.4h.75v2.1l1.388,1.388s-.525.525-.525.525ZM6,3c1.654,0,3,1.346,3,3s-1.346,3-3,3-3-1.346-3-3,1.346-3,3-3M6,2.25c-2.071,0-3.75,1.679-3.75,3.75s1.679,3.75,3.75,3.75,3.75-1.679,3.75-3.75-1.679-3.75-3.75-3.75h0ZM1.5.75h1.5v.75h-1.5v1.5h-.75v-1.5c0-.414.336-.75.75-.75ZM11.25,1.5v1.5h-.75v-1.5h-1.5v-.75h1.5c.414,0,.75.336.75.75ZM3,10.5v.75h-1.5c-.414,0-.75-.336-.75-.75v-1.5h.75v1.5h1.5ZM11.25,9v1.5c0,.414-.336.75-.75.75h-1.5v-.75h1.5v-1.5h.75Z"/>
  <rect class="st0" width="12" height="12"/>
</svg>