<?xml version="1.0" encoding="UTF-8"?>
<svg id="icon" xmlns="http://www.w3.org/2000/svg" version="1.1" viewBox="0 0 16 16" width="15.999999" height="15.999999">
  <!-- Generator: Adobe Illustrator 30.0.0, SVG Export Plug-In . SVG Version: 2.1.1 Build 123)  -->
  <defs>
    <style>
      .st0 {
        fill: none;
      }

      .st1 {
        fill: #555;
      }
    </style>
  </defs>
  <polygon class="st1" points="8.5 9 8.5 5.5 6.5 5.5 6.5 6.5 7.5 6.5 7.5 9 6 9 6 10 10 10 10 9 8.5 9"/>
  <path class="st1" d="M7.75,3c-.414,0-.75.336-.75.75s.336.75.75.75.75-.336.75-.75-.336-.75-.75-.75Z"/>
  <path class="st1" d="M8,15l-4.218-4.974c-.024-.029-.174-.226-.174-.226-.725-.963-1.108-2.103-1.108-3.3C2.5,3.468,4.967,1,8,1s5.5,2.468,5.5,5.5c0,1.197-.383,2.337-1.107,3.299h0s-.15.198-.172.225l-4.22,4.976h0ZM4.406,9.198s.117.154.143.187l3.45,4.069,3.455-4.075c.022-.028.139-.182.139-.183.593-.787.906-1.719.906-2.696,0-2.481-2.019-4.5-4.5-4.5S3.5,4.019,3.5,6.5c0,.978.313,1.91.906,2.698h0Z"/>
  <rect id="_Transparent_Rectangle_" class="st0" x="0" y="0" width="16" height="16"/>
</svg>