<?xml version="1.0" encoding="UTF-8"?>
<svg id="icon" xmlns="http://www.w3.org/2000/svg" version="1.1" viewBox="0 0 16 16" width="16" height="16">
  <!-- Generator: Adobe Illustrator 29.6.0, SVG Export Plug-In . SVG Version: 2.1.1 Build 207)  -->
  <defs>
    <style>
      .st0 {
        fill: none;
      }

      .st1 {
        fill: #aaa;
      }
    </style>
  </defs>
  <rect id="_Transparent_Rectangle_" class="st0" y="0" width="16" height="16"/>
  <path class="st1" d="M15,3.5v3c0,.276-.224.5-.5.5h-3c-.276,0-.5-.224-.5-.5s.224-.5.5-.5h1.712l-1.662-1.523-.016-.015c-1.953-1.952-5.119-1.952-7.071,0s-1.952,5.119,0,7.071c1.912,1.912,4.998,1.957,6.965.101.201-.19.517-.181.707.02s.181.517-.02.707c-1.112,1.054-2.586,1.64-4.118,1.637h-.082c-3.313-.045-5.963-2.768-5.917-6.082.045-3.313,2.768-5.963,6.082-5.917,1.559.021,3.048.649,4.153,1.749l1.766,1.613v-1.863c0-.276.224-.5.5-.5s.5.224.5.5h0Z"/>
</svg>