<?xml version="1.0" encoding="UTF-8"?>
<svg id="icon" xmlns="http://www.w3.org/2000/svg" version="1.1" viewBox="0 0 16 16" width="16" height="16">
  <!-- Generator: Adobe Illustrator 29.6.0, SVG Export Plug-In . SVG Version: 2.1.1 Build 207)  -->
  <defs>
    <style>
      .st0 {
        fill: none;
      }

      .st1 {
        fill: #555;
      }
    </style>
  </defs>
  <rect id="_Transparent_Rectangle_" class="st0" x="0" y="0" width="16" height="16" transform="translate(16 16) rotate(-180)"/>
  <path class="st1" d="M1,3.499c0-.276.224-.5.5-.5s.5.224.5.5v1.863s1.766-1.613,1.766-1.613c1.105-1.1,2.594-1.728,4.153-1.749,3.314-.046,6.037,2.604,6.082,5.917.046,3.314-2.604,6.037-5.917,6.082h-.082c-1.532.003-3.006-.583-4.118-1.637-.201-.19-.21-.506-.02-.707s.506-.21.707-.02c1.967,1.856,5.053,1.811,6.965-.101,1.953-1.952,1.953-5.118,0-7.071s-5.118-1.953-7.071,0l-.016.015-1.662,1.523h1.712c.276,0,.5.224.5.5,0,.276-.224.5-.5.5H1.5c-.276,0-.5-.224-.5-.5v-3s0,0,0,0Z"/>
</svg>