<?xml version="1.0" encoding="UTF-8"?>
<svg id="icon" xmlns="http://www.w3.org/2000/svg" version="1.1" viewBox="0 0 16 16" width="16" height="16">
  <!-- Generator: Adobe Illustrator 29.6.0, SVG Export Plug-In . SVG Version: 2.1.1 Build 207)  -->
  <defs>
    <style>
      .st0 {
        fill: none;
      }

      .st1 {
        fill: #ababab;
      }
    </style>
  </defs>
  <rect id="_Transparent_Rectangle_" class="st0" y="0" width="16" height="16"/>
  <path class="st1" d="M13.5,3v3c0,.276-.224.5-.5.5s-.5-.224-.5-.5v-1.793l-2.646,2.647c-.195.195-.512.195-.708,0-.195-.195-.195-.512,0-.707l2.647-2.646h-1.793c-.276,0-.5-.224-.5-.5s.224-.5.5-.5h3c.276,0,.5.224.5.5ZM6.146,9.146l-2.646,2.647v-1.793c0-.276-.224-.5-.5-.5s-.5.224-.5.5v3c0,.276.224.5.5.5h3c.276,0,.5-.224.5-.5s-.224-.5-.5-.5h-1.793l2.647-2.646c.195-.195.195-.512,0-.708-.195-.195-.512-.195-.707,0ZM13,9.5c-.276,0-.5.224-.5.5v1.793l-2.646-2.647c-.195-.195-.512-.195-.708,0s-.195.512,0,.708l2.647,2.646h-1.793c-.276,0-.5.224-.5.5s.224.5.5.5h3c.276,0,.5-.224.5-.5v-3c0-.276-.224-.5-.5-.5ZM4.207,3.5h1.793c.276,0,.5-.224.5-.5s-.224-.5-.5-.5h-3c-.276,0-.5.224-.5.5v3c0,.276.224.5.5.5s.5-.224.5-.5v-1.793l2.646,2.647c.195.195.512.195.707,0s.195-.512,0-.707h0l-2.647-2.646Z"/>
</svg>