<?xml version="1.0" encoding="UTF-8"?>
<svg id="icon" xmlns="http://www.w3.org/2000/svg" version="1.1" viewBox="0 0 16 16" width="16" height="16">
  <!-- Generator: Adobe Illustrator 29.6.0, SVG Export Plug-In . SVG Version: 2.1.1 Build 207)  -->
  <defs>
    <style>
      .st0 {
        fill: none;
      }

      .st1 {
        fill: #aaa;
      }
    </style>
  </defs>
  <rect id="_Transparent_Rectangle_" class="st0" y="0" width="16" height="16"/>
  <path class="st1" d="M9,6.5v-2.5c0-.276.224-.5.5-.5s.5.224.5.5v1.293l2.646-2.647c.195-.195.512-.195.708,0s.195.512,0,.708l-2.647,2.646h1.293c.276,0,.5.224.5.5s-.224.5-.5.5h-2.5c-.276,0-.5-.224-.5-.5ZM6.5,9h-2.5c-.276,0-.5.224-.5.5s.224.5.5.5h1.293l-2.647,2.646c-.195.195-.195.512,0,.708s.512.195.708,0h0l2.646-2.647v1.293c0,.276.224.5.5.5s.5-.224.5-.5v-2.5c0-.276-.224-.5-.5-.5ZM10.707,10h1.293c.276,0,.5-.224.5-.5s-.224-.5-.5-.5h-2.5c-.276,0-.5.224-.5.5v2.5c0,.276.224.5.5.5s.5-.224.5-.5v-1.293l2.646,2.647c.195.195.512.195.708,0s.195-.512,0-.708l-2.647-2.646ZM6.5,3.5c-.276,0-.5.224-.5.5v1.293l-2.646-2.647c-.195-.195-.512-.195-.707,0s-.195.512,0,.707l2.647,2.646h-1.293c-.276,0-.5.224-.5.5s.224.5.5.5h2.5c.276,0,.5-.224.5-.5v-2.5c0-.276-.224-.5-.5-.5h-.001Z"/>
</svg>